<svg xmlns="http://www.w3.org/2000/svg" width="1188" height="454.878" viewBox="0 0 1188 454.878">
  <defs>
    <style>
      .cls-1 {
        fill: #1b3e61;
        font-size: 147px;
        font-family: DaxlinePro-Bold, DaxlinePro;
        font-weight: 700;
      }

      .cls-2 {
        fill: none;
        stroke: #1b3e61;
        stroke-width: 5px;
      }
    </style>
  </defs>
  <g id="Grupo_1" data-name="Grupo 1" transform="translate(-384 -262.122)">
    <text id="Máquinas_Parise_" data-name="Máquinas Parise®" class="cls-1" transform="translate(978 645)"><tspan x="-593.292" y="0">Máquinas Parise®</tspan></text>
    <path id="two-settings-cogwheels" class="cls-2" d="M126.323,148.561l-6.6-14.645A63.935,63.935,0,0,0,135.636,117l15.02,5.691a5.559,5.559,0,0,0,7.169-3.229l5.52-14.571a5.56,5.56,0,0,0-3.23-7.169L145.1,92.033a63.911,63.911,0,0,0-.708-23.21l14.645-6.6a5.561,5.561,0,0,0,2.786-7.354l-6.4-14.206a5.561,5.561,0,0,0-7.353-2.786l-14.645,6.6a63.936,63.936,0,0,0-16.913-15.91l5.691-15.02a5.561,5.561,0,0,0-3.229-7.169L104.4.856a5.56,5.56,0,0,0-7.169,3.23l-5.69,15.019a63.751,63.751,0,0,0-23.211.707L61.733,5.17a5.561,5.561,0,0,0-7.354-2.786l-14.208,6.4a5.559,5.559,0,0,0-2.786,7.353l6.6,14.645a63.935,63.935,0,0,0-15.91,16.913L13.052,42a5.56,5.56,0,0,0-7.169,3.23L.362,59.8a5.561,5.561,0,0,0,3.229,7.169l15.02,5.691a63.911,63.911,0,0,0,.708,23.21l-14.646,6.6a5.561,5.561,0,0,0-2.786,7.354l6.4,14.206a5.559,5.559,0,0,0,7.353,2.786l14.645-6.6A63.9,63.9,0,0,0,47.2,136.13l-5.691,15.02a5.561,5.561,0,0,0,3.229,7.169l14.571,5.52a5.56,5.56,0,0,0,7.169-3.23l5.69-15.019a63.774,63.774,0,0,0,23.211-.707l6.6,14.643a5.561,5.561,0,0,0,7.354,2.786l14.206-6.4A5.559,5.559,0,0,0,126.323,148.561Zm-9.214-52.854A37.659,37.659,0,0,1,68.5,117.6,37.7,37.7,0,0,1,46.6,68.991a37.659,37.659,0,0,1,48.612-21.9,37.7,37.7,0,0,1,21.9,48.612Zm123.625,75.926a5.561,5.561,0,0,0-3.858-1.8l-10.473-.449a48.045,48.045,0,0,0-5.152-14.12l7.723-7.088a5.559,5.559,0,0,0,.337-7.855l-7.669-8.356a5.56,5.56,0,0,0-7.857-.337l-7.722,7.088a48.053,48.053,0,0,0-13.627-6.341l.449-10.473a5.56,5.56,0,0,0-5.318-5.793l-11.331-.486a5.58,5.58,0,0,0-5.793,5.317L170,131.416a48.1,48.1,0,0,0-14.12,5.151l-7.088-7.723a5.558,5.558,0,0,0-7.855-.337l-8.356,7.669a5.559,5.559,0,0,0-.337,7.855l7.088,7.723a48.039,48.039,0,0,0-6.341,13.627l-10.472-.449a5.574,5.574,0,0,0-5.794,5.317l-.486,11.331a5.562,5.562,0,0,0,5.318,5.794l10.472.448a48.092,48.092,0,0,0,5.151,14.121l-7.722,7.088a5.558,5.558,0,0,0-.337,7.855l7.669,8.356a5.56,5.56,0,0,0,7.857.337l7.722-7.088a48.052,48.052,0,0,0,13.627,6.341l-.449,10.473a5.559,5.559,0,0,0,5.317,5.793l11.331.486c.08,0,.159,0,.238,0a5.561,5.561,0,0,0,5.556-5.321l.449-10.473a48.1,48.1,0,0,0,14.12-5.151l7.088,7.723a5.558,5.558,0,0,0,7.855.337l8.356-7.669a5.559,5.559,0,0,0,.337-7.855l-7.088-7.723a48.039,48.039,0,0,0,6.341-13.627l10.472.449a5.572,5.572,0,0,0,5.794-5.317l.486-11.331A5.558,5.558,0,0,0,240.734,171.632ZM178.1,204.509a25.928,25.928,0,0,1,1.088-51.831q.564,0,1.133.024a25.927,25.927,0,1,1-2.221,51.807Z" transform="matrix(1, -0.017, 0.017, 1, 817.116, 268.421)"/>
    <text id="M" class="cls-1" transform="translate(716 467)"><tspan x="-64.019" y="0">M</tspan></text>
    <text id="P" class="cls-1" transform="translate(1144 467)"><tspan x="-43.292" y="0">P</tspan></text>
  </g>
</svg>
