<svg xmlns="http://www.w3.org/2000/svg" width="60" height="60"><g fill="#1b3e61" data-name="Grupo 32"><path data-name="Caminho 9" d="M19.927 41.149l-1.9.629a12.832 12.832 0 00.755 1.807l1.781-.908a11.047 11.047 0 01-.638-1.528z"/><path data-name="Caminho 10" d="M39.104 31.49a11 11 0 01-18.1 12.5l-1.627 1.166A13 13 0 0040.77 30.383z"/><path data-name="Caminho 11" d="M57.1 14.414a2.88 2.88 0 00-2.9 2.849 2.782 2.782 0 00.429 1.469l-5.258 6.306a2.925 2.925 0 00-.977-.178 3.012 3.012 0 00-.416.041L42.4 19.432l-5.142 3.924a2.909 2.909 0 00-1.45-.4c-.075 0-.146.016-.221.022h-.012l-.85-6.664h-9.45l-.847 6.654q-.714.255-1.426.586l-5.4-4.121-6.682 6.557 4.2 5.3c-.026.055-.045.11-.071.165l-9.254-3.634c0-.037.012-.073.012-.111a2.88 2.88 0 00-2.9-2.849 2.849 2.849 0 102.169 4.724l8.272 3.247-5.6.688v9.274l6.78.832q.26.7.6 1.4l-4.2 5.3 6.672 6.555L23 52.76q.71.33 1.426.586L25.273 60h9.451l.847-6.654q.714-.255 1.426-.586l5.4 4.121 6.682-6.558-4.2-5.3q.337-.7.6-1.4l6.78-.832v-9.272l-6.78-.832q-.26-.7-.6-1.4l1.344-1.7a2.9 2.9 0 005.067-1.873 2.774 2.774 0 00-.429-1.469l5.258-6.307a2.855 2.855 0 10.981-5.524zM2.9 28.66a.95.95 0 11.968-.95.96.96 0 01-.968.95zm43.3-2.806a2.858 2.858 0 00-.36.513l-7.188-1.086a2.742 2.742 0 00-.142-.477l3.724-2.842zm-9.426-.04a.968.968 0 11-.968-.95.96.96 0 01.968.95zm-23.274.334l4.267-4.187 5.02 3.831.55-.28a14.517 14.517 0 012.272-.932l.59-.183.789-6.184h6.033l.715 5.611a2.8 2.8 0 00.051 4.023l-1.036 2.2A8.84 8.84 0 0030 29.614a8.735 8.735 0 00-7.725 4.614l-1.961-.74c0-.026.008-.049.008-.075a2.88 2.88 0 00-2.9-2.849 3.018 3.018 0 00-.4.039zm9.9 10.535l3.705 1.4c0 .026-.008.049-.008.075a2.903 2.903 0 005.806 0 2.81 2.81 0 00-.88-2.036l1.662-3.534a6.613 6.613 0 013.089 5.57 6.775 6.775 0 01-13.548 0 6.5 6.5 0 01.173-1.474zm6.6.524a.95.95 0 11-.968.95.96.96 0 01.968-.95zm.262-1.874c-.088-.008-.172-.026-.262-.026a2.906 2.906 0 00-2.194 1l-3.712-1.4A6.8 6.8 0 0130 31.509a6.882 6.882 0 011.93.278zm-12.843-2.875a.95.95 0 11-.968.95.96.96 0 01.968-.95zm25.466-.844a13.842 13.842 0 01.949 2.229l.187.58 6.3.773v5.918l-6.3.772-.187.58a14.092 14.092 0 01-.949 2.229l-.285.54 3.9 4.926-4.267 4.187-5.02-3.831-.55.28a14.517 14.517 0 01-2.272.932l-.59.183-.789 6.185h-6.028l-.784-6.183-.59-.183a14.517 14.517 0 01-2.272-.932l-.55-.28-5.02 3.831-4.268-4.184 3.9-4.926-.285-.54a13.842 13.842 0 01-.949-2.229l-.187-.58-6.3-.773v-5.92l5.1-.625a2.909 2.909 0 004.838.682l1.97.744a8.338 8.338 0 00-.293 2.16 8.711 8.711 0 0017.419 0 8.513 8.513 0 00-4.209-7.3l1.043-2.219c.088.009.172.027.262.027a2.9 2.9 0 002.543-1.5l6.568.992-2.32 2.915zm5.5-2.955a.95.95 0 11.968-.95.96.96 0 01-.966.951zM57.1 18.214a.95.95 0 11.968-.95.96.96 0 01-.968.95z"/><path data-name="Caminho 12" d="M24.414 10.414H20v-10h-2v12h1.586L14 18l-5.586-5.586H10v-8H8v6H3.586L14 20.828z"/><path data-name="Caminho 13" d="M8 .414h2v2H8z"/><path data-name="Caminho 14" d="M40 18.414h2v-10h-1.586L46 2.828l5.586 5.586H50v6h2v-4h4.414L46 0 35.586 10.414H40z"/><path data-name="Caminho 15" d="M50 15.758h2v2h-2z"/></g></svg>