<svg xmlns="http://www.w3.org/2000/svg" width="60" height="60"><g data-name="Grupo 34"><g data-name="Grupo 31"><g data-name="Grupo 12"><g data-name="Grupo 11"><path data-name="Caminho 6" d="M59.146 15.751l-3.873-.553a1 1 0 01-.457-1.783l3.13-2.348a1 1 0 00.2-1.394L54.559 4.89a1 1 0 00-1.394-.2l-3.129 2.35a1 1 0 01-1.587-.937L49 2.229a1 1 0 00-.844-1.127l-5.91-.844a1 1 0 00-1.127.844l-.554 3.874a1 1 0 01-1.782.457l-2.345-3.132a1 1 0 00-1.394-.2l-2.991 2.247a19.257 19.257 0 00-4.072 0A18.919 18.919 0 0011.3 21.315c-.027.282-.037.562-.051.842h-.3a1 1 0 00-.974.8l-.688 3.272-2.756-1.9a1 1 0 00-1.269.116l-2.983 2.982a1 1 0 00-.115 1.269l1.892 2.752-3.272.688a1 1 0 00-.784.975v3.979a1 1 0 00.79.975l3.272.688-1.891 2.756a1 1 0 00.115 1.269l2.987 2.988a1 1 0 001.269.116l2.751-1.9.688 3.273a1 1 0 00.974.8h3.982a1 1 0 00.975-.791l.688-3.274 2.751 1.892a1 1 0 001.268-.116l1.546-1.552v2.838a3.971 3.971 0 001.991 3.43v5.533a3.983 3.983 0 003.982 3.983h3.982a3.983 3.983 0 003.98-3.982v-5.533a3.971 3.971 0 001.991-3.43v-3.942a4.88 4.88 0 012.3-4.065 19.106 19.106 0 002.344-1.793l-1.322-1.483a16.95 16.95 0 01-2.1 1.6 6.86 6.86 0 00-3.213 5.741v3.942a1.991 1.991 0 01-1.991 1.992h-7.961a1.991 1.991 0 01-1.991-1.992v-4.025A6.7 6.7 0 0021 37.408a16.879 16.879 0 018.916-31.171 1.083 1.083 0 00-.039.109 1 1 0 00.19.738l2.347 3.13a.975.975 0 01.06 1.105.99.99 0 01-1 .479l-3.873-.554a1 1 0 00-1.127.844l-.845 5.914a1 1 0 00.844 1.127l3.873.554a1 1 0 01.457 1.783l-3.129 2.347a1 1 0 00-.2 1.394l3.584 4.78a1 1 0 001.394.2l3.13-2.347a1 1 0 011.582.937l-.553 3.874a1 1 0 00.844 1.127l5.914.845a1.1 1.1 0 00.14.009 1 1 0 00.987-.854l.553-3.874a1 1 0 011.782-.457l2.348 3.13a1 1 0 001.394.2l4.784-3.587a1 1 0 00.2-1.394l-2.347-3.13a.979.979 0 01-.06-1.105.967.967 0 011-.478l3.873.553a1 1 0 001.127-.844l.844-5.915a1 1 0 00-.848-1.126zm-33 35.286h7.965v1.992h-7.963zm0 3.983h7.965v1a1.991 1.991 0 01-1.991 1.992h-3.981a1.991 1.991 0 01-1.991-1.992zm-7.924-17.174a18.818 18.818 0 001.7 1.24 4.861 4.861 0 012.006 2.548l-2.136 2.132-2.066-1.426a1.991 1.991 0 00-3.078 1.23l-.522 2.487H11.76l-.522-2.483a1.991 1.991 0 00-3.078-1.23l-2.069 1.422-1.814-1.81L5.7 39.89a1.992 1.992 0 00-1.229-3.08l-2.48-.52v-2.371l2.482-.523A1.992 1.992 0 005.7 30.322l-1.423-2.073 1.814-1.81 2.07 1.426a1.991 1.991 0 003.077-1.231l.174-.829a18.969 18.969 0 00.789 3.377 5.975 5.975 0 106.02 8.664zm-1.546-1.4a3.977 3.977 0 11-3.734-5.324h.038a18.861 18.861 0 003.696 5.321zM57.31 21.523l-2.887-.412a2.988 2.988 0 00-2.812 4.75l1.749 2.329-3.186 2.39-1.75-2.332a2.987 2.987 0 00-5.346 1.369l-.4 2.892-3.942-.564.412-2.888a2.987 2.987 0 00-4.748-2.809l-2.333 1.75-2.389-3.187 2.332-1.751a2.988 2.988 0 00-1.369-5.348L27.75 17.3l.563-3.943 2.887.412a2.988 2.988 0 002.813-4.75l-1.755-2.335 3.186-2.394 1.75 2.333a2.987 2.987 0 005.346-1.365l.412-2.888 3.942.563-.412 2.888a2.987 2.987 0 004.749 2.812l2.333-1.75 2.389 3.187-2.333 1.751a2.988 2.988 0 001.369 5.348l2.887.412z" fill="#1b3e61"/></g></g></g><g data-name="Grupo 14"><g data-name="Grupo 13"><path data-name="Caminho 7" d="M42.81 9.473a7.967 7.967 0 107.965 7.967 7.966 7.966 0 00-7.965-7.967zm0 13.942a5.975 5.975 0 115.973-5.975 5.974 5.974 0 01-5.973 5.975z" fill="#1b3e61"/></g></g><g data-name="Grupo 16"><g data-name="Grupo 15"><path data-name="Retângulo 8" fill="#1b3e61" d="M29.135 44.066h1.991v2.988h-1.991z"/></g></g><g data-name="Grupo 18"><g data-name="Grupo 17"><path data-name="Caminho 8" d="M25.776 34.286a11.952 11.952 0 01-2.017-21.245l-1.064-1.685a13.944 13.944 0 002.359 24.783 6.358 6.358 0 014.086 5.935h1.991a8.332 8.332 0 00-5.355-7.788z" fill="#1b3e61"/></g></g><g data-name="Grupo 20"><g data-name="Grupo 19"><path data-name="Retângulo 9" fill="#1b3e61" d="M49.046 37.095h6.969v1.992h-6.969z"/></g></g><g data-name="Grupo 22"><g data-name="Grupo 21"><path data-name="Retângulo 10" fill="#1b3e61" d="M47.414 43.834l1.274-1.528 5.972 4.976-1.274 1.529z"/></g></g><g data-name="Grupo 24"><g data-name="Grupo 23"><path data-name="Retângulo 11" fill="#1b3e61" d="M43.073 45.062h1.991v6.971h-1.991z"/></g></g><g data-name="Grupo 26"><g data-name="Grupo 25"><path data-name="Retângulo 12" fill="#1b3e61" d="M1.017 17.206l7.965-1.991.483 1.93L1.5 19.138z"/></g></g><g data-name="Grupo 28"><g data-name="Grupo 27"><path data-name="Retângulo 13" fill="#1b3e61" d="M2.67 7.034l1.156-1.619 6.972 4.976-1.156 1.62z"/></g></g><g data-name="Grupo 30"><g data-name="Grupo 29"><path data-name="Retângulo 14" fill="#1b3e61" d="M11.201.493l1.93-.494 2.039 7.968-1.93.494z"/></g></g></g></svg>