<svg fill="#1b3e61" height="512" viewBox="0 0 64 64" width="512" xmlns="http://www.w3.org/2000/svg"><path d="M61.866 43.48l-4.264-4.264A18.868 18.868 0 0060 30c0-10.477-8.523-19-19-19-4.378 0-8.403 1.503-11.619 4H18.274A7.976 7.976 0 0021 9c0-4.411-3.589-8-8-8S5 4.589 5 9a7.985 7.985 0 002.997 6.233C3.997 16.147 1 19.727 1 24v6c0 3.164 2.112 5.842 5 6.705V59c0 2.206 1.794 4 4 4 1.2 0 2.266-.542 3-1.382.734.84 1.8 1.382 3 1.382 2.206 0 4-1.794 4-4v-1.586L28.414 49l-1-1 2.558-2.558A18.889 18.889 0 0037 48.568v5.213l2.416.603-1.281 2.136 5.347 5.347 2.134-1.282.603 2.415h7.562l.603-2.416 2.134 1.282 5.347-5.347-1.281-2.136L63 53.781v-7.562l-2.416-.603zM58 30c0 9.374-7.626 17-17 17s-17-7.626-17-17 7.626-17 17-17 17 7.626 17 17zm-3 20c0 2.757-2.243 5-5 5s-5-2.243-5-5c0-.516.102-1.013.254-1.498a18.89 18.89 0 006.768-3.056A4.98 4.98 0 0155 50zm-33-7.414l-2 2V37h.5a3.49 3.49 0 002.476-1.029 18.943 18.943 0 002.582 5.057L23 43.586zM22 30c0 .122.016.24.018.361A3.46 3.46 0 0020.5 30H20v-6.5c0-.827.673-1.5 1.5-1.5h2.29A18.867 18.867 0 0022 30zm-8.041-5.373l-.959.959-.959-.959.741-7.627h.435zM7 9c0-3.309 2.691-6 6-6s6 2.691 6 6-2.691 6-6 6-6-2.691-6-6zm3 8h.773l-.814 8.373L13 28.414l3.041-3.041L15.227 17h11.955a19.135 19.135 0 00-2.307 3H21.5c-1.93 0-3.5 1.57-3.5 3.5V30H9c-.551 0-1-.448-1-1v-7H6v6H3v-4c0-3.859 3.14-7 7-7zM3 30h3.184A2.996 2.996 0 009 32h11.5c.827 0 1.5.673 1.5 1.5s-.673 1.5-1.5 1.5H8c-2.757 0-5-2.243-5-5zm13 31c-1.103 0-2-.897-2-2V41h-2v18c0 1.103-.897 2-2 2s-2-.897-2-2V37h10v22c0 1.103-.897 2-2 2zm4-6.414v-7.172l2-2L25.586 49zm6-8L24.414 45l2.402-2.402c.497.56 1.026 1.088 1.586 1.586zm35 1.195v4.438l-1.949.486-.534.206-.466 1.139 1.296 2.159-3.138 3.138-2.158-1.295-1.22.496L52.219 61h-4.438l-.487-1.949-.203-.535-1.142-.464-2.158 1.295-3.138-3.138 1.296-2.159-.5-1.22L39 52.219v-3.326c.658.069 1.324.107 2 .107.71 0 1.408-.046 2.098-.122-.06.369-.098.742-.098 1.122 0 3.859 3.14 7 7 7s7-3.141 7-7a6.968 6.968 0 00-3.296-5.913 19.177 19.177 0 002.799-3.141l2.844 2.844-1.296 2.159.503 1.22zM63 6c0-2.757-2.243-5-5-5h-4c-2.757 0-5 2.243-5 5v5h9c2.757 0 5-2.243 5-5zM51 6c0-1.654 1.346-3 3-3h4c1.654 0 3 1.346 3 3s-1.346 3-3 3h-7z"/><path d="M53 5h2v2h-2zm4 0h2v2h-2zM41 45c8.271 0 15-6.729 15-15s-6.729-15-15-15-15 6.729-15 15 6.729 15 15 15zm-5-10h2v7.637a12.772 12.772 0 01-2-.64zm-2 5.937a13.052 13.052 0 01-2-1.578V29h2zm6 2.012V21h2v21.949c-.331.026-.662.051-1 .051s-.669-.025-1-.051zM44 31h2v10.997c-.641.268-1.312.476-2 .64zm6 8.359a13.052 13.052 0 01-2 1.578V27h2zM41 17c7.168 0 13 5.832 13 13 0 2.535-.74 4.895-2 6.896V25h-6v4h-2V19h-6v14h-2v-6h-6v9.896c-1.26-2.002-2-4.362-2-6.896 0-7.168 5.832-13 13-13z"/></svg>