<svg xmlns="http://www.w3.org/2000/svg" width="60" height="60.002"><g fill="#1b3e61"><path data-name="Caminho 1" d="M.132 5.5l4 7a1 1 0 00.625.474l3.73.933 12.793 12.79 1.41-1.413L9.699 12.29a1 1 0 00-.464-.263l-3.584-.9-3.4-5.961 2.914-2.918 5.963 3.408.9 3.584a1 1 0 00.263.465L25.29 22.699l1.413-1.414L13.904 8.491l-.933-3.728a1 1 0 00-.474-.626l-7-4a1 1 0 00-1.2.161l-4 4a1 1 0 00-.171 1.2zm0 0"/><path data-name="Caminho 2" d="M41.689 19.7l-21.99 21.991-1.414-1.414 21.991-21.99zm0 0"/><path data-name="Caminho 3" d="M15.85 42.469a1 1 0 00-.857-.485h-6a1 1 0 00-.857.485l-3 5a1 1 0 000 1.03l3 5a1 1 0 00.857.485h6a1 1 0 00.857-.485l3-5a1 1 0 000-1.03zm-1.422 9.511H9.561l-2.4-4 2.4-4h4.866l2.4 4zm0 0"/><path data-name="Caminho 4" d="M47.979 23.992A11.953 11.953 0 0059.606 9.1a1 1 0 00-1.68-.468l-6.218 6.218-4.937-1.645-1.645-4.935 6.222-6.224a1 1 0 00-.47-1.677A11.958 11.958 0 0035.984 12a11.732 11.732 0 00.243 2.342L14.336 36.229a11.792 11.792 0 00-2.342-.243 11.995 11.995 0 1011.995 12 11.763 11.763 0 00-.243-2.342l5.241-5.244 2.292 2.292a1 1 0 001.414 0l.5-.5a1.121 1.121 0 011.587 1.584l-.5.5a1 1 0 000 1.413l11.922 11.924a8.067 8.067 0 1011.46-11.357l-.051-.052L45.687 34.28a1 1 0 00-1.413 0l-.5.5a1.121 1.121 0 01-1.587-1.58l.5-.5a1 1 0 000-1.413l-2.292-2.292 5.241-5.241a11.762 11.762 0 002.342.243zm3.927 33.986a6.074 6.074 0 01-2.126-.388l7.807-7.807a6.062 6.062 0 01-5.681 8.195zM40.583 32a3.119 3.119 0 004.4 4.392l11.215 11.226c.122.122.236.251.346.382l-8.546 8.546a5.931 5.931 0 01-.382-.346L36.389 44.973a3.12 3.12 0 00-4.4-4.392l-1.6-1.6 8.594-8.581zm4.036-10.053L21.943 44.616a1 1 0 00-.264.95 10.062 10.062 0 11-7.268-7.266 1.008 1.008 0 00.95-.264l22.665-22.674a1 1 0 00.263-.949A9.947 9.947 0 0148.547 2.017l-5.273 5.275a1 1 0 00-.242 1.022l2 6a1 1 0 00.633.632l6 2a1 1 0 001.022-.241l5.273-5.273c.012.191.018.38.018.567a9.944 9.944 0 01-12.412 9.685 1 1 0 00-.95.263h.005zm0 0"/><path data-name="Caminho 5" d="M51.686 50.273l-1.414 1.414-10-10 1.413-1.414zm0 0"/></g></svg>