<svg xmlns="http://www.w3.org/2000/svg" width="52.561" height="40" viewBox="0 0 52.561 40">
  <g id="envelope" transform="translate(0 -57.75)">
    <g id="Grupo_41" data-name="Grupo 41" transform="translate(0 57.75)">
      <path id="Caminho_26" data-name="Caminho 26" d="M46.145,57.75H6.427A6.433,6.433,0,0,0,0,64.177V91.323A6.433,6.433,0,0,0,6.427,97.75H46.134a6.433,6.433,0,0,0,6.427-6.427V64.188A6.426,6.426,0,0,0,46.145,57.75Zm3.491,33.573a3.5,3.5,0,0,1-3.491,3.491H6.427a3.5,3.5,0,0,1-3.491-3.491V64.188A3.5,3.5,0,0,1,6.427,60.7H46.134a3.5,3.5,0,0,1,3.491,3.491V91.323Z" transform="translate(0 -57.75)" fill="#1b3e61"/>
      <path id="Caminho_27" data-name="Caminho 27" d="M82.837,123l12.855-11.528a1.471,1.471,0,0,0-1.968-2.186L76,125.2l-3.458-3.089c-.011-.011-.022-.022-.022-.033a2.17,2.17,0,0,0-.239-.207L58.2,109.277a1.471,1.471,0,0,0-1.958,2.2L69.254,123.1,56.3,135.226a1.474,1.474,0,0,0-.065,2.077,1.5,1.5,0,0,0,1.077.468,1.471,1.471,0,0,0,1-.392l13.148-12.3,3.567,3.187a1.464,1.464,0,0,0,1.958-.011l3.665-3.284,13.072,12.42a1.472,1.472,0,0,0,2.077-.054,1.474,1.474,0,0,0-.054-2.077Z" transform="translate(-49.689 -103.339)" fill="#1b3e61"/>
    </g>
  </g>
</svg>
