<svg xmlns="http://www.w3.org/2000/svg" width="40" height="40.058" viewBox="0 0 40 40.058">
  <g id="Grupo_46" data-name="Grupo 46" transform="translate(-326 -3133)">
    <g id="Grupo_40" data-name="Grupo 40" transform="translate(326 3133)">
      <path id="Caminho_21" data-name="Caminho 21" d="M31.974,49.9a3.94,3.94,0,0,0-2.858-1.31,4.074,4.074,0,0,0-2.891,1.3l-2.672,2.663c-.22-.118-.44-.228-.651-.338-.3-.152-.592-.3-.837-.448a29.037,29.037,0,0,1-6.958-6.341,17.131,17.131,0,0,1-2.283-3.6c.693-.634,1.336-1.294,1.961-1.928.237-.237.473-.482.71-.719a3.879,3.879,0,0,0,0-5.851l-2.308-2.308c-.262-.262-.533-.533-.786-.8-.507-.524-1.04-1.065-1.589-1.573A4,4,0,0,0,7.98,27.406a4.141,4.141,0,0,0-2.875,1.243l-.017.017-2.875,2.9A6.185,6.185,0,0,0,.379,35.5,14.821,14.821,0,0,0,1.461,41.77,36.4,36.4,0,0,0,7.929,52.558,39.786,39.786,0,0,0,21.177,62.932a20.642,20.642,0,0,0,7.44,2.2c.178.008.364.017.533.017a6.371,6.371,0,0,0,4.878-2.1c.008-.017.025-.025.034-.042a19.22,19.22,0,0,1,1.48-1.53c.364-.347.736-.71,1.1-1.091a4.218,4.218,0,0,0,1.277-2.925,4.063,4.063,0,0,0-1.3-2.9ZM35,58.806c-.008,0-.008.008,0,0-.33.355-.668.676-1.031,1.031a22.23,22.23,0,0,0-1.632,1.691,4.076,4.076,0,0,1-3.179,1.344c-.127,0-.262,0-.389-.008a18.337,18.337,0,0,1-6.595-1.978A37.556,37.556,0,0,1,9.7,51.113,34.324,34.324,0,0,1,3.609,40.976a12.072,12.072,0,0,1-.947-5.293,3.881,3.881,0,0,1,1.167-2.511l2.883-2.883A1.922,1.922,0,0,1,8,29.689a1.808,1.808,0,0,1,1.234.592l.025.025c.516.482,1.006.981,1.522,1.513.262.271.533.541.8.82l2.308,2.308a1.614,1.614,0,0,1,0,2.621c-.245.245-.482.49-.727.727-.71.727-1.387,1.4-2.122,2.063-.017.017-.034.025-.042.042a1.724,1.724,0,0,0-.44,1.919l.025.076a18.53,18.53,0,0,0,2.731,4.456l.008.008a31.031,31.031,0,0,0,7.508,6.831,11.546,11.546,0,0,0,1.04.566c.3.152.592.3.837.448.034.017.068.042.1.059a1.833,1.833,0,0,0,.837.211,1.808,1.808,0,0,0,1.285-.583L27.823,51.5a1.913,1.913,0,0,1,1.277-.634,1.722,1.722,0,0,1,1.217.617l.017.017,4.658,4.658A1.672,1.672,0,0,1,35,58.806Z" transform="translate(-0.344 -25.089)" fill="#1b3e61"/>
      <path id="Caminho_22" data-name="Caminho 22" d="M245.883,88.189a10.881,10.881,0,0,1,8.86,8.86,1.134,1.134,0,0,0,1.124.947,1.51,1.51,0,0,0,.194-.017A1.143,1.143,0,0,0,257,96.661a13.157,13.157,0,0,0-10.72-10.72,1.147,1.147,0,0,0-1.319.93A1.129,1.129,0,0,0,245.883,88.189Z" transform="translate(-224.264 -78.661)" fill="#1b3e61"/>
      <path id="Caminho_23" data-name="Caminho 23" d="M267.754,17.671A21.665,21.665,0,0,0,250.1.018a1.14,1.14,0,1,0-.372,2.249,19.351,19.351,0,0,1,15.776,15.776,1.134,1.134,0,0,0,1.124.947,1.511,1.511,0,0,0,.195-.017A1.12,1.12,0,0,0,267.754,17.671Z" transform="translate(-227.772 0)" fill="#1b3e61"/>
    </g>
  </g>
</svg>
