<svg xmlns="http://www.w3.org/2000/svg" width="1188" height="454.878"><defs><style>.cls-1{fill:#1b3e61;font-size:147px;font-family:DaxlinePro-Bold,DaxlinePro;font-weight:700}</style></defs><g id="Grupo_1" data-name="Grupo 1" transform="translate(-384 -262.122)"><text id="Máquinas_Parise_" data-name="Máquinas Parise®" class="cls-1" transform="translate(978 645)"><tspan x="-593.292" y="0">Máquinas Parise®</tspan></text><path id="two-settings-cogwheels" d="M945.965 414.835l-6.85-14.533a63.944 63.944 0 0015.626-17.187l15.117 5.436a5.56 5.56 0 007.114-3.351l5.272-14.665a5.56 5.56 0 00-3.352-7.114l-15.111-5.434a63.92 63.92 0 00-1.103-23.198l14.533-6.849a5.562 5.562 0 002.66-7.401l-6.64-14.097a5.562 5.562 0 00-7.401-2.661l-14.533 6.849a63.945 63.945 0 00-17.183-15.623l5.435-15.116a5.562 5.562 0 00-3.35-7.115l-14.668-5.274a5.56 5.56 0 00-7.115 3.352l-5.434 15.116a63.76 63.76 0 00-23.2 1.101l-6.845-14.53a5.562 5.562 0 00-7.401-2.66l-14.1 6.641a5.56 5.56 0 00-2.66 7.4l6.848 14.533a63.944 63.944 0 00-15.622 17.184l-15.12-5.44a5.56 5.56 0 00-7.114 3.352l-5.273 14.664a5.562 5.562 0 003.35 7.114l15.117 5.436a63.92 63.92 0 001.103 23.198l-14.534 6.849a5.562 5.562 0 00-2.661 7.4l6.642 14.098a5.56 5.56 0 007.4 2.661l14.533-6.849a63.91 63.91 0 0017.185 15.627l-5.435 15.116a5.562 5.562 0 003.35 7.114l14.665 5.273a5.56 5.56 0 007.114-3.352l5.435-15.116a63.783 63.783 0 0023.199-1.101l6.849 14.53a5.562 5.562 0 007.401 2.661l14.098-6.641a5.56 5.56 0 002.659-7.398zm-10.113-52.698a37.664 37.664 0 01-48.237 22.72 37.705 37.705 0 01-22.726-48.237 37.664 37.664 0 0148.24-22.727 37.705 37.705 0 0122.726 48.24zm124.916 73.825a5.562 5.562 0 00-3.889-1.735l-10.48-.27a48.052 48.052 0 00-5.393-14.033l7.603-7.22a5.56 5.56 0 00.203-7.86l-7.81-8.226a5.56 5.56 0 00-7.863-.203l-7.602 7.219a48.06 48.06 0 00-13.735-6.11l.271-10.48a5.56 5.56 0 00-5.416-5.703l-11.34-.293a5.58 5.58 0 00-5.702 5.415l-.265 10.484a48.107 48.107 0 00-14.032 5.391l-7.22-7.602a5.559 5.559 0 00-7.86-.204l-8.226 7.811a5.56 5.56 0 00-.203 7.86l7.219 7.603a48.046 48.046 0 00-6.11 13.735l-10.48-.27a5.575 5.575 0 00-5.703 5.415l-.293 11.339a5.563 5.563 0 005.416 5.704l10.48.27a48.099 48.099 0 005.391 14.033l-7.601 7.22a5.559 5.559 0 00-.204 7.86l7.811 8.226a5.56 5.56 0 007.863.203l7.601-7.22a48.059 48.059 0 0013.735 6.11l-.27 10.48a5.56 5.56 0 005.415 5.703l11.339.294.238-.004a5.562 5.562 0 005.465-5.416l.271-10.48a48.107 48.107 0 0014.033-5.391l7.22 7.602a5.559 5.559 0 007.86.203l8.226-7.81a5.56 5.56 0 00.203-7.861l-7.22-7.603a48.046 48.046 0 006.11-13.735l10.48.271a5.573 5.573 0 005.703-5.415l.294-11.34a5.559 5.559 0 00-1.533-3.968zm-62.075 33.94a25.932 25.932 0 01.207-51.85q.564-.009 1.133.006a25.931 25.931 0 11-1.34 51.844z" fill="none" stroke="#1b3e61" stroke-width="5.001"/><text id="M" class="cls-1" transform="translate(716 467)"><tspan x="-64.019" y="0">M</tspan></text><text id="P" class="cls-1" transform="translate(1144 467)"><tspan x="-43.292" y="0">P</tspan></text></g></svg>