<svg xmlns="http://www.w3.org/2000/svg" width="60" height="60" viewBox="0 0 60 60">
  <g id="Grupo_34" data-name="Grupo 34" transform="translate(-961 -1551)">
    <g id="project-management" transform="translate(961 1550.933)">
      <g id="Grupo_31" data-name="Grupo 31">
        <g id="Grupo_12" data-name="Grupo 12" transform="translate(0 0.314)">
          <g id="Grupo_11" data-name="Grupo 11" transform="translate(0)">
            <path id="Caminho_6" data-name="Caminho 6" d="M59.146,17.561h0l0,0-3.873-.553a1,1,0,0,1-.457-1.783l3.13-2.348a1,1,0,0,0,.2-1.394L54.559,6.7a1,1,0,0,0-1.394-.2L50.036,8.85a1,1,0,0,1-1.587-.937L49,4.039a1,1,0,0,0-.844-1.127h0l-5.91-.844a1,1,0,0,0-1.127.844h0l-.554,3.874a1,1,0,0,1-1.782.457L36.438,4.111a1,1,0,0,0-1.394-.2L32.053,6.158a19.257,19.257,0,0,0-4.072,0A18.919,18.919,0,0,0,11.3,23.125c-.027.282-.037.562-.051.842h-.3a1,1,0,0,0-.974.8l-.688,3.272-2.756-1.9a1,1,0,0,0-1.269.116L2.279,29.237a1,1,0,0,0-.115,1.269l1.892,2.752-3.272.688A1,1,0,0,0,0,34.921V38.9a1,1,0,0,0,.79.975l3.272.688L2.171,43.319a1,1,0,0,0,.115,1.269l2.987,2.988a1,1,0,0,0,1.269.116l2.751-1.9.688,3.273a1,1,0,0,0,.974.8h3.982a1,1,0,0,0,.975-.791L16.6,45.8l2.751,1.892a1,1,0,0,0,1.268-.116l1.546-1.552v2.838a3.971,3.971,0,0,0,1.991,3.43v5.533a3.983,3.983,0,0,0,3.982,3.983h3.982A3.983,3.983,0,0,0,36.1,57.826V52.293a3.971,3.971,0,0,0,1.991-3.43V44.921a4.88,4.88,0,0,1,2.3-4.065,19.106,19.106,0,0,0,2.344-1.793L41.413,37.58a16.95,16.95,0,0,1-2.1,1.6A6.86,6.86,0,0,0,36.1,44.921v3.942a1.991,1.991,0,0,1-1.991,1.992H26.148a1.991,1.991,0,0,1-1.991-1.992V44.838A6.7,6.7,0,0,0,21,39.218,16.879,16.879,0,0,1,29.916,8.047a1.083,1.083,0,0,0-.039.109,1,1,0,0,0,.19.738l2.347,3.13a.975.975,0,0,1,.06,1.105.99.99,0,0,1-1,.479l-3.873-.554a1,1,0,0,0-1.127.844h0l-.845,5.914a1,1,0,0,0,.844,1.127h0l3.873.554a1,1,0,0,1,.457,1.783l-3.129,2.347a1,1,0,0,0-.2,1.394l3.584,4.78a1,1,0,0,0,1.394.2l3.13-2.347a1,1,0,0,1,1.582.937l-.553,3.874a1,1,0,0,0,.844,1.127h0l5.914.845a1.1,1.1,0,0,0,.14.009,1,1,0,0,0,.987-.854l.553-3.874a1,1,0,0,1,1.782-.457l2.348,3.13a1,1,0,0,0,1.394.2L55.357,31a1,1,0,0,0,.2-1.394l-2.347-3.13a.979.979,0,0,1-.06-1.105.967.967,0,0,1,1-.478l3.873.553a1,1,0,0,0,1.127-.844h0l.844-5.915A1,1,0,0,0,59.146,17.561Zm-33,35.286h7.965v1.992H26.148Zm0,3.983h7.965v1a1.991,1.991,0,0,1-1.991,1.992H28.139a1.991,1.991,0,0,1-1.991-1.992ZM18.222,39.656a18.818,18.818,0,0,0,1.7,1.24,4.861,4.861,0,0,1,2.006,2.548l-2.136,2.132L17.726,44.15a1.991,1.991,0,0,0-3.078,1.23l-.522,2.487H11.76l-.522-2.483a1.991,1.991,0,0,0-3.078-1.23L6.091,45.576l-1.814-1.81L5.7,41.7a1.992,1.992,0,0,0-1.229-3.08L1.991,38.1V35.729l2.482-.523A1.992,1.992,0,0,0,5.7,32.132L4.277,30.059l1.814-1.81,2.07,1.426a1.991,1.991,0,0,0,3.077-1.231l.174-.829a18.969,18.969,0,0,0,.789,3.377,5.975,5.975,0,1,0,6.02,8.664Zm-1.546-1.4a3.977,3.977,0,1,1-3.734-5.324h.038A18.861,18.861,0,0,0,16.676,38.253ZM57.31,23.333l-2.887-.412a2.988,2.988,0,0,0-2.812,4.75L53.36,30l-3.186,2.39-1.75-2.332a2.987,2.987,0,0,0-5.346,1.369l-.4,2.892-3.942-.564.412-2.888A2.987,2.987,0,0,0,34.4,28.058l-2.333,1.75-2.389-3.187,2.332-1.751a2.988,2.988,0,0,0-1.369-5.348L27.75,19.11l.563-3.943,2.887.412a2.988,2.988,0,0,0,2.813-4.75L32.258,8.494,35.444,6.1l1.75,2.333A2.987,2.987,0,0,0,42.54,7.068l.412-2.888,3.942.563-.412,2.888a2.987,2.987,0,0,0,4.749,2.812l2.333-1.75,2.389,3.187L53.62,13.631a2.988,2.988,0,0,0,1.369,5.348l2.887.412Z" transform="translate(0 -2.057)" fill="#1b3e61"/>
          </g>
        </g>
      </g>
      <g id="Grupo_14" data-name="Grupo 14" transform="translate(34.845 9.54)">
        <g id="Grupo_13" data-name="Grupo 13">
          <path id="Caminho_7" data-name="Caminho 7" d="M287.965,76.171a7.967,7.967,0,1,0,7.965,7.967A7.966,7.966,0,0,0,287.965,76.171Zm0,13.942a5.975,5.975,0,1,1,5.973-5.975A5.974,5.974,0,0,1,287.965,90.113Z" transform="translate(-280 -76.171)" fill="#1b3e61"/>
        </g>
      </g>
      <g id="Grupo_16" data-name="Grupo 16" transform="translate(29.135 44.133)">
        <g id="Grupo_15" data-name="Grupo 15">
          <rect id="Retângulo_8" data-name="Retângulo 8" width="1.991" height="2.988" fill="#1b3e61"/>
        </g>
      </g>
      <g id="Grupo_18" data-name="Grupo 18" transform="translate(16.184 11.423)">
        <g id="Grupo_17" data-name="Grupo 17">
          <path id="Caminho_8" data-name="Caminho 8" d="M139.636,114.221a11.952,11.952,0,0,1-2.017-21.245l-1.064-1.685a13.944,13.944,0,0,0,2.359,24.783A6.358,6.358,0,0,1,143,122.009h1.991A8.332,8.332,0,0,0,139.636,114.221Z" transform="translate(-130.044 -91.291)" fill="#1b3e61"/>
        </g>
      </g>
      <g id="Grupo_20" data-name="Grupo 20" transform="translate(49.046 37.162)">
        <g id="Grupo_19" data-name="Grupo 19">
          <rect id="Retângulo_9" data-name="Retângulo 9" width="6.969" height="1.992" fill="#1b3e61"/>
        </g>
      </g>
      <g id="Grupo_22" data-name="Grupo 22" transform="translate(47.414 42.371)">
        <g id="Grupo_21" data-name="Grupo 21" transform="translate(0 0)">
          <rect id="Retângulo_10" data-name="Retângulo 10" width="1.99" height="7.776" transform="matrix(0.64, -0.768, 0.768, 0.64, 0, 1.53)" fill="#1b3e61"/>
        </g>
      </g>
      <g id="Grupo_24" data-name="Grupo 24" transform="translate(43.073 45.129)">
        <g id="Grupo_23" data-name="Grupo 23">
          <rect id="Retângulo_11" data-name="Retângulo 11" width="1.991" height="6.971" fill="#1b3e61"/>
        </g>
      </g>
      <g id="Grupo_26" data-name="Grupo 26" transform="translate(1.017 15.282)">
        <g id="Grupo_25" data-name="Grupo 25" transform="translate(0 0)">
          <rect id="Retângulo_12" data-name="Retângulo 12" width="8.21" height="1.99" transform="translate(0 1.991) rotate(-14.035)" fill="#1b3e61"/>
        </g>
      </g>
      <g id="Grupo_28" data-name="Grupo 28" transform="translate(2.67 5.481)">
        <g id="Grupo_27" data-name="Grupo 27" transform="translate(0 0)">
          <rect id="Retângulo_13" data-name="Retângulo 13" width="1.989" height="8.565" transform="matrix(0.581, -0.814, 0.814, 0.581, 0, 1.62)" fill="#1b3e61"/>
        </g>
      </g>
      <g id="Grupo_30" data-name="Grupo 30" transform="translate(11.201 0.067)">
        <g id="Grupo_29" data-name="Grupo 29">
          <rect id="Retângulo_14" data-name="Retângulo 14" width="1.991" height="8.223" transform="matrix(0.969, -0.248, 0.248, 0.969, 0, 0.493)" fill="#1b3e61"/>
        </g>
      </g>
    </g>
  </g>
</svg>
