<svg xmlns="http://www.w3.org/2000/svg" width="60" height="60.002" viewBox="0 0 60 60.002">
  <g id="customer-support" transform="translate(-0.274 0)">
    <path id="Caminho_1" data-name="Caminho 1" d="M.442,5.571l4,7a1,1,0,0,0,.625.474l3.73.933L21.59,26.768,23,25.355,10.009,12.361a1,1,0,0,0-.464-.263l-3.584-.9-3.4-5.961L5.475,2.319l5.963,3.408.9,3.584a1,1,0,0,0,.263.465L25.6,22.77l1.413-1.414L14.214,8.562l-.933-3.728a1,1,0,0,0-.474-.626l-7-4a1,1,0,0,0-1.2.161l-4,4a1,1,0,0,0-.171,1.2Zm0,0" transform="translate(-0.036 -0.071)" fill="#1b3e61"/>
    <path id="Caminho_2" data-name="Caminho 2" d="M197.385,175.133l-21.99,21.991-1.414-1.414,21.991-21.99Zm0,0" transform="translate(-155.422 -155.433)" fill="#1b3e61"/>
    <path id="Caminho_3" data-name="Caminho 3" d="M58.606,399.32a1,1,0,0,0-.857-.485h-6a1,1,0,0,0-.857.485l-3,5a1,1,0,0,0,0,1.03l3,5a1,1,0,0,0,.857.485h6a1,1,0,0,0,.857-.485l3-5a1,1,0,0,0,0-1.03Zm-1.422,9.511H52.317l-2.4-4,2.4-4h4.866l2.4,4Zm0,0" transform="translate(-42.482 -356.851)" fill="#1b3e61"/>
    <path id="Caminho_4" data-name="Caminho 4" d="M48.253,23.992A11.953,11.953,0,0,0,59.88,9.1,1,1,0,0,0,58.2,8.632L51.982,14.85l-4.937-1.645L45.4,8.27l6.222-6.224A1,1,0,0,0,51.152.369,11.958,11.958,0,0,0,36.258,12a11.732,11.732,0,0,0,.243,2.342L14.61,36.229a11.792,11.792,0,0,0-2.342-.243,11.995,11.995,0,1,0,11.995,12,11.763,11.763,0,0,0-.243-2.342L29.261,40.4l2.292,2.292a1,1,0,0,0,1.414,0l.5-.5a1.121,1.121,0,0,1,1.587,1.584l0,0-.5.5a1,1,0,0,0,0,1.413L46.476,57.613A8.067,8.067,0,1,0,57.936,46.256l-.051-.052L45.961,34.28a1,1,0,0,0-1.413,0l-.5.5A1.121,1.121,0,0,1,42.461,33.2l0,0,.5-.5a1,1,0,0,0,0-1.413l-2.292-2.292,5.241-5.241a11.762,11.762,0,0,0,2.342.243Zm3.927,33.986a6.074,6.074,0,0,1-2.126-.388l7.807-7.807a6.062,6.062,0,0,1-5.681,8.195ZM40.857,32a3.119,3.119,0,0,0,4.4,4.392L56.472,47.618c.122.122.236.251.346.382l-8.546,8.546c-.131-.11-.26-.224-.382-.346L36.663,44.973a3.12,3.12,0,0,0-4.4-4.392l-1.6-1.6L39.257,30.4Zm4.036-10.053L22.217,44.616a1,1,0,0,0-.264.95A10.062,10.062,0,1,1,14.685,38.3a1.008,1.008,0,0,0,.95-.264L38.3,15.362a1,1,0,0,0,.263-.949A9.947,9.947,0,0,1,48.821,2.017L43.548,7.292a1,1,0,0,0-.242,1.022l2,6a1,1,0,0,0,.633.632l6,2a1,1,0,0,0,1.022-.241l5.273-5.273c.012.191.018.38.018.567a9.944,9.944,0,0,1-12.412,9.685,1,1,0,0,0-.95.263h.005Zm0,0" transform="translate(0 0)" fill="#1b3e61"/>
    <path id="Caminho_5" data-name="Caminho 5" d="M394.3,392.62l-1.414,1.414-10-10,1.413-1.414Zm0,0" transform="translate(-342.34 -342.347)" fill="#1b3e61"/>
  </g>
</svg>
