<svg xmlns="http://www.w3.org/2000/svg" width="52.561" height="40"><g data-name="Grupo 41" fill="#1b3e61"><path data-name="Caminho 26" d="M46.145 0H6.427A6.433 6.433 0 000 6.427v27.146A6.433 6.433 0 006.427 40h39.707a6.433 6.433 0 006.427-6.427V6.438A6.426 6.426 0 0046.145 0zm3.491 33.573a3.5 3.5 0 01-3.491 3.491H6.427a3.5 3.5 0 01-3.491-3.491V6.438A3.5 3.5 0 016.427 2.95h39.707a3.5 3.5 0 013.491 3.491v27.132z"/><path data-name="Caminho 27" d="M33.148 19.661L46.003 8.133a1.471 1.471 0 00-1.968-2.186L26.311 21.861l-3.458-3.089c-.011-.011-.022-.022-.022-.033a2.17 2.17 0 00-.239-.207L8.511 5.938a1.473 1.473 0 00-1.958 2.2l13.012 11.623L6.611 31.887a1.474 1.474 0 00-.065 2.077 1.5 1.5 0 001.077.468 1.471 1.471 0 001-.392l13.148-12.3 3.567 3.187a1.464 1.464 0 001.958-.011l3.665-3.284 13.072 12.42a1.472 1.472 0 002.077-.054 1.474 1.474 0 00-.054-2.077z"/></g></svg>