<svg xmlns="http://www.w3.org/2000/svg" width="40" height="40.058"><g data-name="Grupo 46"><g data-name="Grupo 40" fill="#1b3e61"><path data-name="Caminho 21" d="M31.63 24.811a3.94 3.94 0 00-2.858-1.31 4.074 4.074 0 00-2.891 1.3l-2.672 2.663c-.22-.118-.44-.228-.651-.338-.3-.152-.592-.3-.837-.448a29.037 29.037 0 01-6.958-6.341 17.131 17.131 0 01-2.283-3.6c.693-.634 1.336-1.294 1.961-1.928.237-.237.473-.482.71-.719a3.879 3.879 0 000-5.851l-2.308-2.308a42.249 42.249 0 01-.786-.8 40.731 40.731 0 00-1.589-1.573 4 4 0 00-2.832-1.241A4.141 4.141 0 004.761 3.56l-.017.017-2.875 2.9a6.185 6.185 0 00-1.834 3.934 14.821 14.821 0 001.082 6.27 36.4 36.4 0 006.468 10.788 39.786 39.786 0 0013.248 10.374 20.642 20.642 0 007.44 2.2c.178.008.364.017.533.017a6.371 6.371 0 004.878-2.1c.008-.017.025-.025.034-.042a19.22 19.22 0 011.48-1.53c.364-.347.736-.71 1.1-1.091a4.218 4.218 0 001.277-2.925 4.063 4.063 0 00-1.3-2.9zm3.026 8.906c-.008 0-.008.008 0 0-.33.355-.668.676-1.031 1.031a22.23 22.23 0 00-1.632 1.691 4.076 4.076 0 01-3.179 1.344c-.127 0-.262 0-.389-.008a18.337 18.337 0 01-6.595-1.978 37.556 37.556 0 01-12.474-9.773 34.324 34.324 0 01-6.091-10.137 12.072 12.072 0 01-.947-5.293 3.881 3.881 0 011.167-2.511L6.368 5.2a1.922 1.922 0 011.288-.6 1.808 1.808 0 011.234.592l.025.025c.516.482 1.006.981 1.522 1.513.262.271.533.541.8.82l2.308 2.308a1.614 1.614 0 010 2.621c-.245.245-.482.49-.727.727-.71.727-1.387 1.4-2.122 2.063-.017.017-.034.025-.042.042a1.724 1.724 0 00-.44 1.919l.025.076a18.53 18.53 0 002.731 4.456l.008.008a31.031 31.031 0 007.508 6.831 11.546 11.546 0 001.04.566c.3.152.592.3.837.448.034.017.068.042.1.059a1.833 1.833 0 00.837.211 1.808 1.808 0 001.285-.583l2.894-2.891a1.913 1.913 0 011.277-.634 1.722 1.722 0 011.217.617l.017.017 4.658 4.658a1.672 1.672 0 01.008 2.648z"/><path data-name="Caminho 22" d="M21.619 9.528a10.881 10.881 0 018.86 8.86 1.134 1.134 0 001.124.947 1.51 1.51 0 00.194-.017A1.143 1.143 0 0032.736 18a13.157 13.157 0 00-10.72-10.72 1.147 1.147 0 00-1.319.93 1.129 1.129 0 00.922 1.318z"/><path data-name="Caminho 23" d="M39.982 17.671A21.665 21.665 0 0022.328.018a1.14 1.14 0 10-.372 2.249 19.351 19.351 0 0115.776 15.776 1.134 1.134 0 001.124.947 1.511 1.511 0 00.195-.017 1.12 1.12 0 00.931-1.302z"/></g></g></svg>